# xmcd
#
# Track frame offsets:
#	150
#	11729
#	21233
#	32115
#	51257
#	63590
#	75019
#	84636
#	98649
#	113321
#	124410
#	145249
#	157903
#	169973
#	186588
#	200562
#	216083
#	232528
#	246031
#	265834
#	278790
#	289350
#	309963
#	326013
#
# Disc length: 4514 seconds
#
# Revision: 1
# Processed by: cddbd v1.4PL0 Copyright (c) Steve Scherf et al.
# Submitted via: audiograbber 1.80
#
DISCID=4c11a018
DTITLE=Elvis Presley - Great Country Songs
DYEAR=1900
DGENRE=
TTITLE0=I forgot to remember to forget
TTITLE1=Blue moon of kentucky
TTITLE2=When my blue moon turns to gold again
TTITLE3=Old shep
TTITLE4=Your cheatin' heart
TTITLE5=(now and then there's) a fool such as i
TTITLE6=Just call me lonesome
TTITLE7=There goes my everything
TTITLE8=Kentucky rain
TTITLE9=From a jack to a king
TTITLE10=I'll hold you in my heart (till i can hold you in my arms)
TTITLE11=I really don't want to know
TTITLE12=It keeps right on a hurting
TTITLE13=Green green grass of home
TTITLE14=Fairytale
TTITLE15=Gentle on my mind
TTITLE16=Make the world go away
TTITLE17=You asked me to
TTITLE18=Funny how time slips away
TTITLE19=Help me make it through the night
TTITLE20=Susan when she tried
TTITLE21=He'll have to go
TTITLE22=Always on my mind
TTITLE23=Guitar man (remake)
EXTD=
EXTT0=
EXTT1=
EXTT2=
EXTT3=
EXTT4=
EXTT5=
EXTT6=
EXTT7=
EXTT8=
EXTT9=
EXTT10=
EXTT11=
EXTT12=
EXTT13=
EXTT14=
EXTT15=
EXTT16=
EXTT17=
EXTT18=
EXTT19=
EXTT20=
EXTT21=
EXTT22=
EXTT23=
PLAYORDER=
